<svg width="34" height="39" viewBox="0 0 34 39" fill="none" xmlns="http://www.w3.org/2000/svg">
<path d="M16.7723 19.6251C21.9267 19.6251 26.1042 15.4476 26.1042 10.2932C26.1042 5.13879 21.9267 0.961304 16.7723 0.961304C11.6178 0.961304 7.44034 5.13879 7.44034 10.2932C7.44034 15.4476 11.6178 19.6251 16.7723 19.6251ZM9.77332 23.6495C4.37831 25.2316 0.441406 30.2183 0.441406 36.1237C0.441406 37.3193 1.41105 38.2889 2.6067 38.2889H30.9378C32.1334 38.2889 33.1031 37.3193 33.1031 36.1237C33.1031 30.2183 29.1662 25.2316 23.7712 23.6495V27.3531C25.7834 27.8707 27.2707 29.7007 27.2707 31.8733V34.7895C27.2707 35.431 26.7457 35.956 26.1042 35.956H24.9377C24.2961 35.956 23.7712 35.431 23.7712 34.7895C23.7712 34.1479 24.2961 33.623 24.9377 33.623V31.8733C24.9377 30.5828 23.8951 29.5403 22.6047 29.5403C21.3143 29.5403 20.2717 30.5828 20.2717 31.8733V33.623C20.9133 33.623 21.4382 34.1479 21.4382 34.7895C21.4382 35.431 20.9133 35.956 20.2717 35.956H19.1052C18.4637 35.956 17.9387 35.431 17.9387 34.7895V31.8733C17.9387 29.7007 19.426 27.8707 21.4382 27.3531V23.1902C21.0008 23.1465 20.556 23.1246 20.104 23.1246H13.4405C12.9885 23.1246 12.5437 23.1465 12.1063 23.1902V27.9582C13.7904 28.4613 15.0225 30.0215 15.0225 31.8733C15.0225 34.126 13.1926 35.956 10.9398 35.956C8.68702 35.956 6.8571 34.126 6.8571 31.8733C6.8571 30.0215 8.0892 28.4613 9.77332 27.9582V23.6495ZM10.9398 33.623C11.9095 33.623 12.6895 32.8429 12.6895 31.8733C12.6895 30.9036 11.9095 30.1235 10.9398 30.1235C9.97016 30.1235 9.19007 30.9036 9.19007 31.8733C9.19007 32.8429 9.97016 33.623 10.9398 33.623Z" fill="white"/>
</svg>
