<svg width="36" height="34" viewBox="0 0 36 34" fill="none" xmlns="http://www.w3.org/2000/svg">
<path d="M35.3797 12.512L34.9225 12.0606C35.2182 11.4537 35.3197 10.7723 35.2132 10.1071C35.1067 9.44189 34.7975 8.82453 34.3266 8.33729C34.0053 8.02162 33.6195 7.77725 33.195 7.62047C32.7705 7.4637 32.3169 7.39814 31.8647 7.42816C31.4397 7.45269 31.0224 7.55066 30.6317 7.71762V0.11853H0.996094V33.5579H30.6317V16.6501L33.9021 13.4211L34.1816 13.6959C34.2181 13.732 34.2471 13.7747 34.2668 13.8218C34.2866 13.8689 34.2967 13.9193 34.2967 13.9703C34.2967 14.0212 34.2866 14.0717 34.2668 14.1187C34.2471 14.1658 34.2181 14.2086 34.1816 14.2446L31.6911 16.7044C31.5322 16.8612 31.4429 17.0738 31.4428 17.2955C31.4427 17.5173 31.5319 17.73 31.6906 17.8868C31.8493 18.0437 32.0647 18.1319 32.2893 18.132C32.5139 18.1321 32.7293 18.0441 32.8882 17.8874L35.3797 15.4275C35.771 15.0407 35.9908 14.5164 35.9908 13.9697C35.9908 13.4231 35.771 12.8988 35.3797 12.512ZM7.34657 6.5974H24.2833V8.26937H7.34657V6.5974ZM7.34657 10.7773H24.2833V12.4493H7.34657V10.7773ZM7.34657 14.9572H18.4599V16.6292H7.34657V14.9572ZM23.0016 29.2693H14.7428C13.7881 29.2693 12.8948 29.1794 12.4206 28.4082C11.9348 27.6193 12.4174 26.7028 12.7699 26.0319C12.8323 25.9139 12.6937 25.7676 12.5349 25.9295C12.0692 26.4019 11.3283 27.2525 10.7324 27.9359C10.1027 28.659 9.85289 28.9422 9.71953 29.0613C9.57844 29.2231 9.38681 29.334 9.17485 29.3764C8.96289 29.4188 8.74267 29.3903 8.54893 29.2954C8.37498 29.1962 8.23871 29.0435 8.16092 28.8607C8.08313 28.6778 8.06811 28.4749 8.11815 28.2828C8.16261 28.0216 8.91831 25.1144 9.60311 22.5009C8.69287 24.0966 5.8034 28.8753 5.66793 29.1C5.56715 29.2667 5.40343 29.387 5.21278 29.4346C5.02213 29.4821 4.82017 29.4529 4.65132 29.3534C4.48248 29.2539 4.36058 29.0923 4.31244 28.904C4.26431 28.7158 4.29388 28.5164 4.39466 28.3497C4.4317 28.2901 8.05147 22.3014 8.50765 21.4319C8.65636 21.0844 8.93314 20.8056 9.28206 20.6517C9.63098 20.4979 10.026 20.4806 10.3874 20.6033C10.7136 20.7342 10.9774 20.9823 11.1257 21.2976C11.2739 21.6128 11.2957 21.9719 11.1865 22.3024C10.8055 23.7528 10.417 25.2409 10.1175 26.3987C10.6012 25.847 11.1071 25.2806 11.4723 24.9096C11.7533 24.5761 12.1373 24.3426 12.5655 24.2451C12.9937 24.1475 13.4424 24.1912 13.8431 24.3694C14.0921 24.4945 14.2915 24.6983 14.4096 24.9482C14.5278 25.1982 14.5579 25.48 14.4951 25.7487C14.394 26.0817 14.2563 26.4026 14.0844 26.7059C13.8018 27.2859 13.9362 27.8053 14.7428 27.8053H23.0016C23.198 27.8053 23.3865 27.8823 23.5254 28.0195C23.6644 28.1567 23.7424 28.3427 23.7424 28.5367C23.7424 28.7308 23.6644 28.9168 23.5254 29.054C23.3865 29.1912 23.198 29.2682 23.0016 29.2682V29.2693ZM20.8001 23.9921L18.0439 24.71C18.0039 24.7213 17.9614 24.7216 17.9212 24.7109C17.8809 24.7002 17.8443 24.679 17.8153 24.6494C17.7849 24.6211 17.763 24.585 17.752 24.5452C17.741 24.5054 17.7413 24.4634 17.7529 24.4237L18.4557 21.7078L25.4306 14.8214L27.7591 17.1203L20.8001 23.9921ZM32.9358 12.0094L28.9562 15.9385L26.6277 13.6395L30.6073 9.7104C30.9632 9.34911 31.4421 9.13093 31.9515 9.09804L32.0467 9.0949C32.2466 9.09138 32.4452 9.12717 32.6309 9.20019C32.8166 9.27321 32.9858 9.38199 33.1284 9.52021C33.4344 9.87674 33.5857 10.3379 33.5496 10.8038C33.5136 11.2697 33.293 11.7028 32.9358 12.0094Z" fill="white"/>
</svg>
