<svg width="37" height="33" viewBox="0 0 37 33" fill="none" xmlns="http://www.w3.org/2000/svg">
<path d="M33.2886 7.48566H27.845V3.85659C27.845 2.89409 27.4627 1.97102 26.7821 1.29044C26.1015 0.609856 25.1784 0.227509 24.216 0.227509H13.3287C12.3662 0.227509 11.4432 0.609856 10.7626 1.29044C10.082 1.97102 9.69964 2.89409 9.69964 3.85659V7.48566H4.25603C3.29354 7.48566 2.37047 7.86801 1.68988 8.54859C1.0093 9.22918 0.626953 10.1522 0.626953 11.1147V29.2601C0.626953 30.2226 1.0093 31.1457 1.68988 31.8263C2.37047 32.5069 3.29354 32.8892 4.25603 32.8892H33.2886C34.2511 32.8892 35.1742 32.5069 35.8548 31.8263C36.5354 31.1457 36.9177 30.2226 36.9177 29.2601V11.1147C36.9177 10.1522 36.5354 9.22918 35.8548 8.54859C35.1742 7.86801 34.2511 7.48566 33.2886 7.48566ZM13.3287 3.85659H24.216V7.48566H13.3287V3.85659ZM26.0305 22.002H20.5869V27.4456H16.9578V22.002H11.5142V18.3729H16.9578V12.9293H20.5869V18.3729H26.0305V22.002Z" fill="white"/>
</svg>
