<svg width="34" height="22" viewBox="0 0 34 22" fill="none" xmlns="http://www.w3.org/2000/svg">
<path d="M0 1.57143C0 1.15466 0.222128 0.754961 0.617517 0.460261C1.01291 0.165561 1.54917 0 2.10833 0H31.625C32.1842 0 32.7204 0.165561 33.1158 0.460261C33.5112 0.754961 33.7333 1.15466 33.7333 1.57143C33.7333 1.9882 33.5112 2.3879 33.1158 2.6826C32.7204 2.9773 32.1842 3.14286 31.625 3.14286H2.10833C1.54917 3.14286 1.01291 2.9773 0.617517 2.6826C0.222128 2.3879 0 1.9882 0 1.57143ZM0 20.4286C0 20.0118 0.222128 19.6121 0.617517 19.3174C1.01291 19.0227 1.54917 18.8571 2.10833 18.8571H31.625C32.1842 18.8571 32.7204 19.0227 33.1158 19.3174C33.5112 19.6121 33.7333 20.0118 33.7333 20.4286C33.7333 20.8453 33.5112 21.245 33.1158 21.5397C32.7204 21.8344 32.1842 22 31.625 22H2.10833C1.54917 22 1.01291 21.8344 0.617517 21.5397C0.222128 21.245 0 20.8453 0 20.4286ZM14.7583 9.42857C14.1992 9.42857 13.6629 9.59413 13.2675 9.88883C12.8721 10.1835 12.65 10.5832 12.65 11C12.65 11.4168 12.8721 11.8165 13.2675 12.1112C13.6629 12.4059 14.1992 12.5714 14.7583 12.5714H31.625C32.1842 12.5714 32.7204 12.4059 33.1158 12.1112C33.5112 11.8165 33.7333 11.4168 33.7333 11C33.7333 10.5832 33.5112 10.1835 33.1158 9.88883C32.7204 9.59413 32.1842 9.42857 31.625 9.42857H14.7583Z" fill="black"/>
</svg>