<svg width="21" height="21" viewBox="0 0 21 21" fill="none" xmlns="http://www.w3.org/2000/svg">
<path d="M8.83268 17.5C10.7556 17.4996 12.6231 16.8559 14.1378 15.6714L18.9001 20.4337L20.4319 18.9019L15.6696 14.1395C16.8548 12.6247 17.4989 10.7567 17.4993 8.83335C17.4993 4.05477 13.6113 0.166687 8.83268 0.166687C4.0541 0.166687 0.166016 4.05477 0.166016 8.83335C0.166016 13.6119 4.0541 17.5 8.83268 17.5ZM8.83268 2.33335C12.4174 2.33335 15.3327 5.2486 15.3327 8.83335C15.3327 12.4181 12.4174 15.3334 8.83268 15.3334C5.24793 15.3334 2.33268 12.4181 2.33268 8.83335C2.33268 5.2486 5.24793 2.33335 8.83268 2.33335Z" fill="#394B57"/>
</svg>
